Coordinates
version=1
nRows=22
nColumns=24
inDegrees=yes

Units are S.I. units (second, meters, Newtons, ...)
Angles are in degrees.

endheader
time	pelvis_tilt	pelvis_list	pelvis_rotation	pelvis_tx	pelvis_ty	pelvis_tz	hip_flexion_r	hip_adduction_r	hip_rotation_r	knee_angle_r	ankle_angle_r	subtalar_angle_r	mtp_angle_r	hip_flexion_l	hip_adduction_l	hip_rotation_l	knee_angle_l	ankle_angle_l	subtalar_angle_l	mtp_angle_l	lumbar_extension	lumbar_bending	lumbar_rotation
      4.07500000	    -14.42323434	     -1.12242068	      5.52609101	     -0.31241238	     -0.02821564	     -0.02896973	     37.57290677	     -0.12625180	     -7.26499527	     -6.33934565	     -5.95543251	      5.68894751	     11.77024970	     -2.01963601	      2.78144336	     -4.24045138	    -10.07351840	      3.75747302	     17.79499980	     14.01128342	     11.89727420	     -0.89124958	     -7.45852042
      4.08000000	    -14.49120668	     -1.10602042	      5.63158653	     -0.30606671	     -0.02910146	     -0.02906266	     37.75473741	     -0.14330028	     -7.50109696	     -7.00580822	     -5.95383938	      5.46163774	     11.89076429	     -2.12294479	      2.70740462	     -4.29627768	    -10.43961260	      3.60694147	     18.18097167	     14.28850330	     12.00659766	     -0.88731545	     -7.49280437
      4.08500000	    -14.55922923	     -1.09905394	      5.74763245	     -0.29965672	     -0.02997158	     -0.02917819	     37.91707763	     -0.16118548	     -7.70197959	     -7.68587457	     -5.99278550	      5.21859247	     12.01622238	     -2.22111889	      2.61763054	     -4.35675684	    -10.81195394	      3.43186685	     18.59521113	     14.59191245	     12.12258880	     -0.87488757	     -7.53975479
      4.09000000	    -14.62314515	     -1.10262185	      5.86521229	     -0.29319796	     -0.03080733	     -0.02929995	     38.05411528	     -0.17117015	     -7.86188165	     -8.36163080	     -6.09401458	      4.97241307	     12.14058218	     -2.31567119	      2.50955065	     -4.41776578	    -11.19675460	      3.22860210	     19.03221194	     14.91175220	     12.23550351	     -0.84734269	     -7.58447355
      4.09500000	    -14.69152474	     -1.12964439	      5.97280330	     -0.28666491	     -0.03161918	     -0.02940267	     38.16862277	     -0.15190295	     -7.97895285	     -9.00695406	     -6.26734924	      4.71681525	     12.28414753	     -2.39221957	      2.36661513	     -4.51223181	    -11.60150988	      2.99390441	     19.52417384	     15.28627108	     12.36622351	     -0.79346078	     -7.64344877
      4.10000000	    -14.75423635	     -1.18294456	      6.07735449	     -0.28008351	     -0.03237055	     -0.02951367	     38.25160793	     -0.10638947	     -8.04148164	     -9.61245167	     -6.54529205	      4.45617701	     12.44587866	     -2.46254618	      2.18766264	     -4.62683841	    -12.01969636	      2.72348166	     20.04481162	     15.69297306	     12.49444178	     -0.70685751	     -7.69549477
      4.10500000	    -14.79194548	     -1.25058008	      6.09560921	     -0.27343736	     -0.03306382	     -0.02950318	     38.29212704	      0.01421450	     -7.99243290	    -10.16550138	     -6.97648634	      4.15638341	     12.77794473	     -2.56546945	      1.98061906	     -4.86425064	    -12.41782156	      2.36523180	     20.58947201	     16.28201208	     12.60281182	     -0.57975421	     -7.64903725
      4.11000000	    -14.84717291	     -1.37638721	      6.24536230	     -0.26684580	     -0.03362900	     -0.02968467	     38.31837306	      0.09358172	     -8.03633853	    -10.66570523	     -7.47914711	      3.94267734	     12.86904563	     -2.59172222	      1.71417171	     -4.84864934	    -12.90841099	      2.05367822	     21.07219178	     16.55134810	     12.72712957	     -0.43090769	     -7.80606203
      4.11500000	    -14.90378085	     -1.54927101	      6.30226737	     -0.26017281	     -0.03413739	     -0.02973261	     38.33633871	      0.27962865	     -7.98836805	    -11.11042493	     -8.14108462	      3.67117431	     13.01608668	     -2.60409126	      1.37711119	     -5.04899642	    -13.41223094	      1.70220973	     21.72809099	     16.96956226	     12.86450615	     -0.20630536	     -7.85366634
      4.12000000	    -14.88700910	     -1.70633935	      6.29086944	     -0.25354918	     -0.03448426	     -0.02969137	     38.26121855	      0.50607467	     -7.76351409	    -11.48579824	     -8.96900428	      3.28215834	     13.41792165	     -2.69004813	      1.04050633	     -5.37799501	    -13.89807969	      1.18907843	     22.38576048	     17.65539482	     12.90553012	      0.03547333	     -7.79005899
      4.12500000	    -14.92502480	     -1.93010816	      6.38092441	     -0.24692008	     -0.03473892	     -0.02976145	     38.23899203	      0.71459417	     -7.69458767	    -11.86419999	     -9.78691009	      2.96008250	     13.51600207	     -2.65546623	      0.62998163	     -5.54934311	    -14.48351236	      0.71838431	     23.06790869	     18.03957825	     13.01776605	      0.30414671	     -7.90696309
      4.13000000	    -14.94644388	     -2.20160169	      6.41515669	     -0.24024048	     -0.03489008	     -0.02980855	     38.19161812	      1.00290021	     -7.54916523	    -12.21976714	    -10.65224729	      2.55713593	     13.51796937	     -2.62038059	      0.16031651	     -5.79940623	    -15.09307629	      0.19497606	     23.76315551	     18.47148696	     13.12100966	      0.64589066	     -7.96211711
      4.13500000	    -14.95658205	     -2.49512114	      6.44094197	     -0.23354067	     -0.03493441	     -0.02983194	     38.12815572	      1.31901165	     -7.37000996	    -12.57873361	    -11.49053421	      2.09338571	     13.38994939	     -2.56681281	     -0.34537233	     -6.07934069	    -15.74494080	     -0.40180757	     24.48315637	     18.91815543	     13.21599908	      1.01573038	     -8.01495902
      4.14000000	    -14.95588309	     -2.80035248	      6.46592180	     -0.22681749	     -0.03488214	     -0.02985795	     38.04980727	      1.64879769	     -7.16072982	    -12.95388867	    -12.26384986	      1.55520489	     13.10114475	     -2.49299143	     -0.87603614	     -6.39749906	    -16.44177760	     -1.07946861	     25.23103997	     19.37914204	     13.30322452	      1.40004606	     -8.06643866
      4.14500000	    -14.93834541	     -3.11263335	      6.47373489	     -0.22007565	     -0.03475284	     -0.02986036	     37.95702749	      2.00155235	     -6.91178668	    -13.36073831	    -12.94741683	      0.93263581	     12.60742211	     -2.40961380	     -1.42947557	     -6.78911583	    -17.17653843	     -1.84596298	     26.00772598	     19.90142469	     13.37224875	      1.79620409	     -8.10506586
      4.15000000	    -14.91115163	     -3.41483383	      6.48002866	     -0.21329054	     -0.03455812	     -0.02984853	     37.84744430	      2.35034516	     -6.64180677	    -13.78999958	    -13.49327817	      0.27679423	     11.91724521	     -2.30542365	     -1.98761943	     -7.22022478	    -17.95967004	     -2.72454927	     26.80253947	     20.45905401	     13.43722500	      2.18664384	     -8.13469708
      4.15500000	    -14.88226443	     -3.70829598	      6.47553185	     -0.20646470	     -0.03431585	     -0.02981928	     37.73103446	      2.69967653	     -6.37759437	    -14.23627629	    -13.90828917	     -0.39418878	     11.07459717	     -2.17607426	     -2.55118221	     -7.70471772	    -18.78211168	     -3.71997549	     27.60821886	     21.05773225	     13.50542061	      2.56966214	     -8.15657750
      4.16000000	    -14.82276238	     -4.02495253	      6.49528380	     -0.19963833	     -0.03398285	     -0.02987926	     37.56997579	      3.05524940	     -6.13530508	    -14.70018853	    -14.07769826	     -0.93129356	      9.67845711	     -2.03476840	     -3.14693734	     -8.18431360	    -19.63584259	     -4.91203033	     28.23939403	     21.95834692	     13.54351292	      2.98382692	     -8.21798595
      4.16500000	    -14.83344058	     -4.28239410	      6.48184430	     -0.19284123	     -0.03374703	     -0.02979393	     37.48714430	      3.36741378	     -5.96004774	    -15.13781690	    -14.30582668	     -1.56078014	      9.13932795	     -1.76380446	     -3.71005110	     -8.79521446	    -20.63756349	     -6.04665756	     29.11362665	     22.40021169	     13.64508570	      3.32587271	     -8.20185989
      4.17000000	    -14.78700917	     -4.49652372	      6.48733044	     -0.18611396	     -0.03338130	     -0.02966471	     37.31590720	      3.64660634	     -5.72451430	    -15.54765361	    -14.37111131	     -2.11989545	      8.45582921	     -1.51792854	     -4.25692701	     -9.41842052	    -21.64035125	     -7.48606054	     29.93681068	     23.26094197	     13.66996629	      3.61298533	     -8.22186440
      4.17500000	    -14.80799484	     -4.75355939	      6.49214077	     -0.17923231	     -0.03307660	     -0.02959274	     37.19767337	      3.94047284	     -5.71444737	    -15.92562355	    -14.33485728	     -2.52633529	      8.14444835	     -1.15589098	     -4.86267393	    -10.08759337	    -22.73303899	     -8.96448542	     30.75252912	     23.87404192	     13.80579753	      3.94714071	     -8.24248448
      4.18000000	    -14.79481857	     -4.96001981	      6.47512227	     -0.17260740	     -0.03270358	     -0.02938747	     37.03050024	      4.22000513	     -5.57559240	    -16.26772572	    -14.23487530	     -2.86133901	      7.88240310	     -0.76655584	     -5.45138795	    -10.82363583	    -23.88317660	    -10.69234842	     31.51346828	     24.85475374	     13.85054873	      4.22823285	     -8.22428396
